<svg xmlns="http://www.w3.org/2000/svg" xmlns:xlink="http://www.w3.org/1999/xlink" width="500" zoomAndPan="magnify" viewBox="0 0 375 374.999991" height="500" preserveAspectRatio="xMidYMid meet" version="1.0"><defs><g/><clipPath id="id1"><path d="M 0 85.152344 L 375 85.152344 L 375 291.402344 L 0 291.402344 Z M 0 85.152344 " clip-rule="nonzero"/></clipPath><clipPath id="id2"><path d="M 47.046875 160.542969 L 328.257812 160.542969 L 328.257812 226.542969 L 47.046875 226.542969 Z M 47.046875 160.542969 " clip-rule="nonzero"/></clipPath></defs><g clip-path="url(#id1)"><path fill="#f8813d" d="M 0.0078125 85.152344 L 374.992188 85.152344 L 374.992188 291.402344 L 0.0078125 291.402344 L 0.0078125 85.152344 " fill-opacity="1" fill-rule="nonzero"/></g><path fill="#fffffe" d="M 187.421875 152.566406 C 192.816406 148.53125 197.414062 160.546875 197.058594 147.8125 C 196.882812 141.089844 192.550781 131.402344 185.917969 131.402344 C 179.289062 131.402344 172.921875 141.089844 172.921875 147.8125 C 172.921875 154.539062 179.289062 158.574219 187.421875 152.566406 Z M 187.421875 152.566406 " fill-opacity="1" fill-rule="nonzero"/><path fill="#fffffe" d="M 169.421875 119.683594 C 169.675781 119.648438 169.933594 119.660156 170.195312 119.722656 C 170.460938 119.785156 170.722656 119.898438 170.984375 120.0625 C 171.246094 120.222656 171.503906 120.433594 171.757812 120.6875 C 172.011719 120.945312 172.253906 121.242188 172.488281 121.582031 C 172.71875 121.921875 172.9375 122.292969 173.144531 122.703125 C 173.347656 123.113281 173.535156 123.550781 173.703125 124.015625 C 173.867188 124.476562 174.015625 124.960938 174.140625 125.460938 C 174.265625 125.960938 174.367188 126.472656 174.441406 126.988281 C 174.519531 127.507812 174.570312 128.023438 174.597656 128.539062 C 174.625 129.054688 174.625 129.5625 174.597656 130.054688 C 174.574219 130.546875 174.523438 131.019531 174.445312 131.472656 C 174.371094 131.925781 174.269531 132.347656 174.144531 132.742188 C 174.019531 133.136719 173.875 133.492188 173.707031 133.8125 C 173.539062 134.132812 173.355469 134.410156 173.152344 134.644531 C 172.949219 134.878906 172.730469 135.0625 172.496094 135.203125 C 172.265625 135.34375 172.019531 135.429688 171.769531 135.46875 C 171.515625 135.507812 171.257812 135.496094 170.996094 135.433594 C 170.734375 135.367188 170.46875 135.257812 170.207031 135.09375 C 169.945312 134.929688 169.6875 134.722656 169.433594 134.464844 C 169.179688 134.210938 168.9375 133.914062 168.703125 133.574219 C 168.472656 133.234375 168.253906 132.859375 168.050781 132.449219 C 167.84375 132.042969 167.660156 131.605469 167.492188 131.140625 C 167.324219 130.675781 167.175781 130.195312 167.050781 129.695312 C 166.925781 129.191406 166.828125 128.683594 166.75 128.164062 C 166.671875 127.648438 166.621094 127.128906 166.59375 126.613281 C 166.566406 126.097656 166.566406 125.59375 166.59375 125.101562 C 166.617188 124.605469 166.667969 124.132812 166.746094 123.679688 C 166.824219 123.230469 166.921875 122.804688 167.046875 122.414062 C 167.171875 122.019531 167.316406 121.660156 167.484375 121.34375 C 167.652344 121.023438 167.835938 120.746094 168.039062 120.511719 C 168.246094 120.277344 168.464844 120.089844 168.695312 119.953125 C 168.929688 119.8125 169.171875 119.722656 169.421875 119.683594 Z M 169.421875 119.683594 " fill-opacity="1" fill-rule="nonzero"/><path fill="#fffffe" d="M 205.164062 130.988281 C 204.910156 131.335938 204.636719 131.667969 204.34375 131.984375 C 204.054688 132.296875 203.753906 132.585938 203.4375 132.851562 C 203.125 133.117188 202.804688 133.351562 202.476562 133.558594 C 202.152344 133.765625 201.824219 133.9375 201.5 134.074219 C 201.175781 134.214844 200.855469 134.316406 200.542969 134.382812 C 200.230469 134.453125 199.929688 134.480469 199.640625 134.472656 C 199.355469 134.464844 199.085938 134.417969 198.832031 134.335938 C 198.582031 134.253906 198.355469 134.136719 198.148438 133.984375 C 197.941406 133.828125 197.765625 133.640625 197.613281 133.421875 C 197.460938 133.203125 197.339844 132.957031 197.246094 132.679688 C 197.152344 132.402344 197.09375 132.105469 197.0625 131.78125 C 197.035156 131.457031 197.039062 131.117188 197.074219 130.761719 C 197.109375 130.40625 197.175781 130.039062 197.273438 129.660156 C 197.371094 129.285156 197.496094 128.90625 197.65625 128.523438 C 197.8125 128.140625 197.996094 127.761719 198.207031 127.386719 C 198.414062 127.011719 198.648438 126.652344 198.902344 126.300781 C 199.160156 125.949219 199.429688 125.617188 199.722656 125.304688 C 200.011719 124.988281 200.3125 124.699219 200.628906 124.433594 C 200.941406 124.171875 201.261719 123.933594 201.589844 123.730469 C 201.914062 123.523438 202.242188 123.351562 202.566406 123.210938 C 202.894531 123.070312 203.210938 122.96875 203.523438 122.902344 C 203.835938 122.835938 204.136719 122.804688 204.425781 122.8125 C 204.710938 122.820312 204.980469 122.867188 205.234375 122.949219 C 205.484375 123.03125 205.714844 123.148438 205.917969 123.304688 C 206.125 123.457031 206.304688 123.644531 206.453125 123.863281 C 206.605469 124.082031 206.730469 124.332031 206.820312 124.605469 C 206.914062 124.882812 206.972656 125.183594 207.003906 125.503906 C 207.03125 125.828125 207.027344 126.167969 206.996094 126.523438 C 206.960938 126.882812 206.894531 127.25 206.792969 127.625 C 206.695312 128.003906 206.570312 128.382812 206.414062 128.765625 C 206.253906 129.148438 206.070312 129.527344 205.863281 129.898438 C 205.652344 130.273438 205.417969 130.636719 205.164062 130.988281 Z M 205.164062 130.988281 " fill-opacity="1" fill-rule="nonzero"/><path fill="#fffffe" d="M 181.382812 129.070312 C 181.070312 129.089844 180.757812 129.058594 180.445312 128.976562 C 180.128906 128.890625 179.824219 128.753906 179.519531 128.570312 C 179.21875 128.382812 178.925781 128.152344 178.648438 127.871094 C 178.371094 127.589844 178.109375 127.269531 177.863281 126.90625 C 177.617188 126.542969 177.394531 126.144531 177.191406 125.710938 C 176.988281 125.277344 176.8125 124.816406 176.660156 124.332031 C 176.511719 123.84375 176.386719 123.34375 176.292969 122.820312 C 176.199219 122.300781 176.132812 121.773438 176.101562 121.238281 C 176.066406 120.703125 176.0625 120.171875 176.089844 119.644531 C 176.117188 119.117188 176.175781 118.601562 176.265625 118.097656 C 176.351562 117.597656 176.46875 117.117188 176.613281 116.664062 C 176.761719 116.207031 176.933594 115.78125 177.128906 115.390625 C 177.324219 114.996094 177.546875 114.644531 177.785156 114.328125 C 178.027344 114.015625 178.285156 113.746094 178.5625 113.523438 C 178.839844 113.300781 179.125 113.125 179.425781 113 C 179.726562 112.875 180.03125 112.804688 180.347656 112.785156 C 180.660156 112.761719 180.972656 112.796875 181.285156 112.878906 C 181.597656 112.964844 181.90625 113.097656 182.207031 113.285156 C 182.511719 113.46875 182.800781 113.703125 183.082031 113.984375 C 183.359375 114.261719 183.621094 114.585938 183.867188 114.949219 C 184.113281 115.3125 184.335938 115.710938 184.539062 116.144531 C 184.738281 116.578125 184.917969 117.035156 185.066406 117.523438 C 185.21875 118.007812 185.339844 118.511719 185.4375 119.03125 C 185.53125 119.554688 185.59375 120.082031 185.628906 120.613281 C 185.664062 121.148438 185.667969 121.679688 185.636719 122.210938 C 185.609375 122.738281 185.554688 123.253906 185.464844 123.753906 C 185.375 124.257812 185.257812 124.734375 185.113281 125.191406 C 184.96875 125.648438 184.796875 126.070312 184.601562 126.464844 C 184.402344 126.855469 184.183594 127.210938 183.941406 127.523438 C 183.703125 127.839844 183.441406 128.109375 183.167969 128.332031 C 182.890625 128.554688 182.601562 128.730469 182.300781 128.851562 C 182.003906 128.976562 181.695312 129.050781 181.382812 129.070312 Z M 181.382812 129.070312 " fill-opacity="1" fill-rule="nonzero"/><path fill="#fffffe" d="M 194.296875 112.507812 C 194.605469 112.566406 194.898438 112.675781 195.183594 112.832031 C 195.46875 112.992188 195.734375 113.199219 195.984375 113.453125 C 196.230469 113.707031 196.457031 114.003906 196.664062 114.34375 C 196.867188 114.683594 197.042969 115.058594 197.195312 115.472656 C 197.347656 115.886719 197.46875 116.328125 197.5625 116.796875 C 197.65625 117.265625 197.714844 117.757812 197.746094 118.265625 C 197.777344 118.773438 197.777344 119.292969 197.746094 119.820312 C 197.710938 120.347656 197.648438 120.878906 197.554688 121.402344 C 197.460938 121.929688 197.335938 122.449219 197.183594 122.953125 C 197.03125 123.460938 196.851562 123.945312 196.644531 124.410156 C 196.441406 124.875 196.214844 125.3125 195.964844 125.71875 C 195.714844 126.125 195.445312 126.496094 195.160156 126.828125 C 194.875 127.160156 194.578125 127.449219 194.269531 127.695312 C 193.960938 127.941406 193.644531 128.136719 193.324219 128.289062 C 193.003906 128.4375 192.683594 128.535156 192.363281 128.582031 C 192.042969 128.628906 191.726562 128.625 191.417969 128.566406 C 191.109375 128.511719 190.8125 128.402344 190.53125 128.246094 C 190.246094 128.085938 189.980469 127.878906 189.730469 127.625 C 189.480469 127.371094 189.253906 127.074219 189.050781 126.734375 C 188.847656 126.394531 188.667969 126.015625 188.519531 125.601562 C 188.367188 125.191406 188.246094 124.75 188.152344 124.277344 C 188.058594 123.808594 187.996094 123.320312 187.964844 122.8125 C 187.9375 122.300781 187.9375 121.785156 187.96875 121.253906 C 188 120.726562 188.066406 120.199219 188.160156 119.671875 C 188.253906 119.144531 188.378906 118.628906 188.53125 118.121094 C 188.683594 117.617188 188.863281 117.132812 189.066406 116.664062 C 189.273438 116.199219 189.5 115.765625 189.75 115.359375 C 190 114.949219 190.265625 114.582031 190.550781 114.25 C 190.835938 113.917969 191.132812 113.628906 191.441406 113.382812 C 191.753906 113.136719 192.066406 112.9375 192.386719 112.789062 C 192.710938 112.640625 193.03125 112.542969 193.351562 112.496094 C 193.671875 112.449219 193.988281 112.453125 194.296875 112.507812 Z M 194.296875 112.507812 " fill-opacity="1" fill-rule="nonzero"/><g clip-path="url(#id2)"><path stroke-linecap="butt" transform="matrix(0.750813, 0, 0, 0.746026, 47.04615, 160.542191)" fill="none" stroke-linejoin="miter" d="M 0.000965339 0.00104245 L 374.542676 0.00104245 L 374.542676 88.469797 L 0.000965339 88.469797 L 0.000965339 0.00104245 " stroke="#fffffe" stroke-width="8" stroke-opacity="1" stroke-miterlimit="4"/></g><path stroke-linecap="butt" transform="matrix(3.731556, 0.000000000000001077, -0.000000000000001082, 3.75, 90.566111, 148.218417)" fill="none" stroke-linejoin="miter" d="M 0.0000792423 0.0000886755 L 19.698002 0.0000886755 " stroke="#fffffe" stroke-width="1" stroke-opacity="1" stroke-miterlimit="4"/><path stroke-linecap="butt" transform="matrix(3.731556, 0.000000000000001077, -0.000000000000001082, 3.75, 209.416251, 148.218417)" fill="none" stroke-linejoin="miter" d="M 0.000460398 0.0000886755 L 19.698383 0.0000886755 " stroke="#fffffe" stroke-width="1" stroke-opacity="1" stroke-miterlimit="4"/><path stroke-linecap="butt" transform="matrix(3.743806, 0, 0, 3.75, 91.715946, 241.830188)" fill="none" stroke-linejoin="miter" d="M -0.000294333 0.000491501 L 51.085127 0.000491501 " stroke="#fffffe" stroke-width="1" stroke-opacity="1" stroke-miterlimit="4"/><g fill="#fffffe" fill-opacity="1"><g transform="translate(68.981235, 209.472819)"><g><path d="M 1.847656 -33.929688 L 6.832031 -33.929688 C 9 -33.929688 11.171875 -33.375 12.832031 -31.804688 C 14.496094 -30.238281 15.601562 -27.652344 15.601562 -23.773438 C 15.601562 -19.894531 14.496094 -17.355469 12.832031 -15.789062 C 11.171875 -14.21875 9 -13.570312 6.832031 -13.570312 L 6.832031 0 L 1.847656 0 Z M 6.832031 -18.648438 C 8.355469 -18.648438 9.324219 -18.925781 9.878906 -19.710938 C 10.433594 -20.449219 10.570312 -21.695312 10.570312 -23.589844 C 10.570312 -25.480469 10.433594 -26.820312 9.878906 -27.652344 C 9.324219 -28.480469 8.355469 -28.851562 6.832031 -28.851562 Z M 6.832031 -18.648438 "/></g></g></g><g fill="#fffffe" fill-opacity="1"><g transform="translate(100.648391, 209.472819)"><g><path d="M 15.09375 -33.929688 L 15.09375 -6.96875 C 15.050781 -5.585938 14.773438 -4.339844 14.265625 -3.277344 C 13.847656 -2.355469 13.203125 -1.476562 12.277344 -0.785156 C 11.355469 -0.046875 10.109375 0.371094 8.449219 0.371094 C 6.785156 0.371094 5.492188 -0.046875 4.570312 -0.785156 C 3.648438 -1.476562 3.046875 -2.355469 2.632812 -3.277344 C 2.125 -4.339844 1.847656 -5.585938 1.800781 -6.96875 L 1.800781 -33.929688 L 6.785156 -33.929688 L 6.785156 -6.96875 C 6.785156 -6 7.015625 -5.355469 7.476562 -4.847656 C 7.710938 -4.617188 8.03125 -4.476562 8.449219 -4.476562 C 9.324219 -4.476562 9.742188 -5.03125 9.925781 -5.722656 C 10.0625 -6.046875 10.109375 -6.460938 10.109375 -6.96875 L 10.109375 -33.929688 Z M 15.09375 -33.929688 "/></g></g></g><g fill="#fffffe" fill-opacity="1"><g transform="translate(132.961784, 209.472819)"><g><path d="M 1.847656 -33.929688 L 6.832031 -33.929688 C 9 -33.929688 11.171875 -33.375 12.832031 -31.804688 C 14.496094 -30.238281 15.601562 -27.652344 15.601562 -23.773438 C 15.601562 -19.894531 14.496094 -17.355469 12.832031 -15.789062 C 11.171875 -14.21875 9 -13.570312 6.832031 -13.570312 L 6.832031 0 L 1.847656 0 Z M 6.832031 -18.648438 C 8.355469 -18.648438 9.324219 -18.925781 9.878906 -19.710938 C 10.433594 -20.449219 10.570312 -21.695312 10.570312 -23.589844 C 10.570312 -25.480469 10.433594 -26.820312 9.878906 -27.652344 C 9.324219 -28.480469 8.355469 -28.851562 6.832031 -28.851562 Z M 6.832031 -18.648438 "/></g></g></g><g fill="#fffffe" fill-opacity="1"><g transform="translate(164.62894, 209.472819)"><g><path d="M 1.847656 -33.929688 L 6.832031 -33.929688 C 9 -33.929688 11.171875 -33.375 12.832031 -31.804688 C 14.496094 -30.238281 15.601562 -27.652344 15.601562 -23.773438 C 15.601562 -19.894531 14.496094 -17.355469 12.832031 -15.789062 C 11.171875 -14.21875 9 -13.570312 6.832031 -13.570312 L 6.832031 0 L 1.847656 0 Z M 6.832031 -18.648438 C 8.355469 -18.648438 9.324219 -18.925781 9.878906 -19.710938 C 10.433594 -20.449219 10.570312 -21.695312 10.570312 -23.589844 C 10.570312 -25.480469 10.433594 -26.820312 9.878906 -27.652344 C 9.324219 -28.480469 8.355469 -28.851562 6.832031 -28.851562 Z M 6.832031 -18.648438 "/></g></g></g><g fill="#fffffe" fill-opacity="1"><g transform="translate(196.296097, 209.472819)"><g><path d="M 1.847656 -33.929688 L 13.25 -33.929688 L 13.25 -28.804688 L 6.832031 -28.804688 L 6.832031 -19.894531 L 11.449219 -19.894531 L 11.449219 -14.449219 L 6.832031 -14.449219 L 6.832031 -5.125 L 13.25 -5.125 L 13.25 0 L 1.847656 0 Z M 1.847656 -33.929688 "/></g></g></g><g fill="#fffffe" fill-opacity="1"><g transform="translate(225.886041, 209.472819)"><g><path d="M 0.460938 0 L 5.585938 -33.929688 L 11.679688 -33.929688 L 16.804688 0 L 11.957031 0 L 11.03125 -6.925781 L 6.230469 -6.925781 L 5.308594 0 Z M 8.910156 -22.898438 L 8.769531 -23.773438 L 8.492188 -23.773438 L 8.355469 -22.898438 L 6.925781 -12.1875 L 10.339844 -12.1875 Z M 8.910156 -22.898438 "/></g></g></g><g fill="#fffffe" fill-opacity="1"><g transform="translate(258.568717, 209.472819)"><g><path d="M 10.109375 -24.835938 C 10.109375 -25.941406 10.0625 -27.191406 9.742188 -28.160156 C 9.417969 -29.082031 8.910156 -29.730469 8.125 -29.730469 C 6.832031 -29.683594 6.417969 -28.34375 6.417969 -26.359375 C 6.417969 -25.203125 6.925781 -24.003906 7.664062 -22.710938 C 8.402344 -21.417969 9.371094 -20.082031 10.339844 -18.648438 C 11.496094 -16.941406 12.648438 -15.1875 13.527344 -13.480469 C 14.402344 -11.769531 15.003906 -10.015625 15.003906 -8.171875 C 15.003906 -5.910156 14.632812 -3.785156 13.570312 -2.214844 C 12.511719 -0.644531 10.800781 0.371094 8.078125 0.371094 C 4.894531 0.371094 3.09375 -0.832031 2.078125 -2.675781 C 1.0625 -4.523438 0.832031 -6.96875 0.832031 -9.507812 L 5.722656 -9.972656 C 5.722656 -8.539062 5.769531 -7.109375 6.140625 -6.046875 C 6.460938 -4.9375 7.015625 -4.199219 8.078125 -4.199219 C 9.554688 -4.199219 10.109375 -5.769531 10.109375 -7.941406 C 10.109375 -9.046875 9.554688 -10.339844 8.816406 -11.679688 C 8.402344 -12.324219 7.984375 -13.019531 7.523438 -13.710938 C 6.554688 -15.09375 5.492188 -16.664062 4.386719 -18.371094 C 3.277344 -20.082031 2.445312 -21.835938 1.9375 -23.636719 C 1.660156 -24.511719 1.523438 -25.433594 1.523438 -26.359375 C 1.523438 -28.207031 1.9375 -30.191406 3 -31.714844 C 4.0625 -33.191406 5.679688 -34.253906 8.03125 -34.296875 C 11.03125 -34.34375 12.785156 -33.097656 13.757812 -31.296875 C 14.726562 -29.453125 15.003906 -27.191406 15.003906 -25.296875 Z M 10.109375 -24.835938 "/></g></g></g><g fill="#fffffe" fill-opacity="1"><g transform="translate(289.820424, 209.472819)"><g><path d="M 1.847656 -33.929688 L 13.25 -33.929688 L 13.25 -28.804688 L 6.832031 -28.804688 L 6.832031 -19.894531 L 11.449219 -19.894531 L 11.449219 -14.449219 L 6.832031 -14.449219 L 6.832031 -5.125 L 13.25 -5.125 L 13.25 0 L 1.847656 0 Z M 1.847656 -33.929688 "/></g></g></g></svg>