<svg xmlns="http://www.w3.org/2000/svg" xmlns:xlink="http://www.w3.org/1999/xlink" width="501" zoomAndPan="magnify" viewBox="0 0 375.75 149.999998" height="200" preserveAspectRatio="xMidYMid meet" version="1.0"><defs><g/><clipPath id="id1"><path d="M 28.683594 55.792969 L 347.410156 55.792969 L 347.410156 130.597656 L 28.683594 130.597656 Z M 28.683594 55.792969 " clip-rule="nonzero"/></clipPath><clipPath id="id2"><path d="M 77 145 L 299 145 L 299 149.949219 L 77 149.949219 Z M 77 145 " clip-rule="nonzero"/></clipPath></defs><path fill="#f8813d" d="M 187.785156 46.753906 C 193.898438 42.179688 199.109375 55.796875 198.710938 41.367188 C 198.507812 33.742188 193.597656 22.765625 186.082031 22.765625 C 178.566406 22.765625 171.351562 33.742188 171.351562 41.367188 C 171.351562 48.988281 178.566406 53.5625 187.785156 46.753906 Z M 187.785156 46.753906 " fill-opacity="1" fill-rule="nonzero"/><path fill="#f8813d" d="M 167.386719 9.484375 C 167.671875 9.441406 167.964844 9.453125 168.261719 9.527344 C 168.5625 9.597656 168.859375 9.726562 169.15625 9.910156 C 169.453125 10.09375 169.746094 10.332031 170.035156 10.621094 C 170.320312 10.910156 170.59375 11.25 170.859375 11.632812 C 171.125 12.015625 171.371094 12.441406 171.601562 12.90625 C 171.835938 13.371094 172.046875 13.863281 172.234375 14.390625 C 172.425781 14.917969 172.589844 15.464844 172.734375 16.03125 C 172.875 16.597656 172.988281 17.175781 173.074219 17.761719 C 173.164062 18.351562 173.222656 18.9375 173.25 19.519531 C 173.28125 20.105469 173.28125 20.675781 173.253906 21.238281 C 173.222656 21.796875 173.164062 22.332031 173.078125 22.84375 C 172.992188 23.355469 172.878906 23.835938 172.738281 24.28125 C 172.597656 24.730469 172.433594 25.132812 172.242188 25.496094 C 172.054688 25.859375 171.84375 26.171875 171.613281 26.4375 C 171.382812 26.703125 171.132812 26.914062 170.871094 27.074219 C 170.605469 27.230469 170.332031 27.332031 170.042969 27.375 C 169.757812 27.417969 169.464844 27.402344 169.167969 27.332031 C 168.871094 27.261719 168.574219 27.132812 168.273438 26.949219 C 167.976562 26.765625 167.683594 26.527344 167.398438 26.238281 C 167.113281 25.945312 166.835938 25.609375 166.574219 25.226562 C 166.308594 24.839844 166.058594 24.417969 165.828125 23.953125 C 165.597656 23.488281 165.386719 22.992188 165.195312 22.46875 C 165.007812 21.941406 164.839844 21.394531 164.699219 20.828125 C 164.558594 20.261719 164.441406 19.683594 164.355469 19.09375 C 164.269531 18.507812 164.210938 17.921875 164.179688 17.335938 C 164.152344 16.753906 164.148438 16.179688 164.179688 15.621094 C 164.207031 15.0625 164.265625 14.527344 164.351562 14.015625 C 164.4375 13.5 164.550781 13.023438 164.691406 12.574219 C 164.832031 12.128906 165 11.726562 165.1875 11.363281 C 165.378906 11 165.589844 10.683594 165.820312 10.421875 C 166.050781 10.15625 166.296875 9.945312 166.5625 9.785156 C 166.824219 9.628906 167.101562 9.527344 167.386719 9.484375 Z M 167.386719 9.484375 " fill-opacity="1" fill-rule="nonzero"/><path fill="#f8813d" d="M 207.894531 22.292969 C 207.605469 22.691406 207.296875 23.066406 206.96875 23.421875 C 206.640625 23.777344 206.296875 24.105469 205.941406 24.40625 C 205.582031 24.707031 205.222656 24.972656 204.851562 25.207031 C 204.480469 25.441406 204.113281 25.636719 203.742188 25.792969 C 203.375 25.953125 203.011719 26.070312 202.65625 26.144531 C 202.304688 26.21875 201.960938 26.253906 201.636719 26.246094 C 201.3125 26.234375 201.003906 26.183594 200.722656 26.089844 C 200.4375 25.996094 200.175781 25.863281 199.945312 25.6875 C 199.710938 25.515625 199.507812 25.304688 199.335938 25.054688 C 199.164062 24.804688 199.027344 24.527344 198.921875 24.210938 C 198.816406 23.898438 198.75 23.558594 198.714844 23.195312 C 198.683594 22.828125 198.6875 22.441406 198.726562 22.039062 C 198.765625 21.636719 198.839844 21.21875 198.953125 20.792969 C 199.0625 20.363281 199.207031 19.933594 199.386719 19.5 C 199.5625 19.066406 199.769531 18.636719 200.007812 18.214844 C 200.246094 17.789062 200.511719 17.378906 200.800781 16.980469 C 201.089844 16.585938 201.398438 16.207031 201.726562 15.851562 C 202.054688 15.496094 202.398438 15.167969 202.753906 14.867188 C 203.113281 14.566406 203.472656 14.300781 203.84375 14.066406 C 204.214844 13.832031 204.582031 13.636719 204.953125 13.480469 C 205.320312 13.324219 205.683594 13.207031 206.039062 13.128906 C 206.390625 13.054688 206.730469 13.019531 207.058594 13.03125 C 207.382812 13.039062 207.691406 13.089844 207.972656 13.183594 C 208.257812 13.277344 208.519531 13.410156 208.75 13.585938 C 208.984375 13.761719 209.1875 13.972656 209.359375 14.21875 C 209.53125 14.46875 209.667969 14.75 209.773438 15.0625 C 209.878906 15.375 209.945312 15.714844 209.980469 16.082031 C 210.011719 16.445312 210.007812 16.832031 209.96875 17.234375 C 209.929688 17.640625 209.855469 18.054688 209.742188 18.484375 C 209.632812 18.910156 209.488281 19.339844 209.308594 19.773438 C 209.132812 20.210938 208.925781 20.636719 208.6875 21.0625 C 208.449219 21.484375 208.183594 21.894531 207.894531 22.292969 Z M 207.894531 22.292969 " fill-opacity="1" fill-rule="nonzero"/><path fill="#f8813d" d="M 180.941406 20.121094 C 180.585938 20.144531 180.230469 20.109375 179.878906 20.011719 C 179.523438 19.917969 179.171875 19.765625 178.832031 19.554688 C 178.488281 19.34375 178.160156 19.082031 177.84375 18.761719 C 177.527344 18.445312 177.230469 18.082031 176.953125 17.667969 C 176.671875 17.257812 176.417969 16.804688 176.191406 16.3125 C 175.960938 15.824219 175.761719 15.300781 175.589844 14.75 C 175.417969 14.199219 175.28125 13.628906 175.171875 13.039062 C 175.066406 12.449219 174.992188 11.851562 174.953125 11.246094 C 174.914062 10.640625 174.910156 10.039062 174.941406 9.4375 C 174.976562 8.839844 175.039062 8.253906 175.140625 7.6875 C 175.242188 7.117188 175.371094 6.574219 175.539062 6.058594 C 175.703125 5.542969 175.898438 5.0625 176.121094 4.617188 C 176.34375 4.171875 176.59375 3.769531 176.867188 3.414062 C 177.140625 3.058594 177.433594 2.753906 177.746094 2.5 C 178.058594 2.246094 178.382812 2.050781 178.722656 1.910156 C 179.066406 1.769531 179.410156 1.683594 179.765625 1.664062 C 180.121094 1.640625 180.476562 1.675781 180.832031 1.769531 C 181.1875 1.867188 181.535156 2.019531 181.878906 2.230469 C 182.21875 2.441406 182.550781 2.703125 182.867188 3.019531 C 183.183594 3.339844 183.480469 3.703125 183.757812 4.117188 C 184.035156 4.527344 184.289062 4.980469 184.519531 5.46875 C 184.746094 5.960938 184.945312 6.480469 185.117188 7.03125 C 185.289062 7.585938 185.429688 8.15625 185.535156 8.746094 C 185.644531 9.335938 185.714844 9.933594 185.753906 10.539062 C 185.792969 11.144531 185.796875 11.746094 185.765625 12.347656 C 185.734375 12.945312 185.667969 13.527344 185.566406 14.097656 C 185.46875 14.667969 185.335938 15.207031 185.171875 15.726562 C 185.003906 16.242188 184.8125 16.722656 184.589844 17.167969 C 184.363281 17.613281 184.117188 18.015625 183.84375 18.371094 C 183.570312 18.726562 183.277344 19.03125 182.964844 19.285156 C 182.652344 19.539062 182.324219 19.734375 181.984375 19.875 C 181.644531 20.015625 181.296875 20.097656 180.941406 20.121094 Z M 180.941406 20.121094 " fill-opacity="1" fill-rule="nonzero"/><path fill="#f8813d" d="M 195.578125 1.351562 C 195.925781 1.414062 196.261719 1.539062 196.585938 1.71875 C 196.90625 1.898438 197.207031 2.132812 197.492188 2.417969 C 197.773438 2.707031 198.027344 3.042969 198.261719 3.429688 C 198.492188 3.816406 198.691406 4.242188 198.863281 4.710938 C 199.035156 5.179688 199.175781 5.679688 199.277344 6.210938 C 199.382812 6.742188 199.453125 7.296875 199.488281 7.875 C 199.523438 8.453125 199.523438 9.039062 199.488281 9.636719 C 199.449219 10.238281 199.378906 10.835938 199.269531 11.433594 C 199.164062 12.03125 199.023438 12.617188 198.851562 13.1875 C 198.675781 13.761719 198.472656 14.3125 198.242188 14.839844 C 198.007812 15.367188 197.75 15.863281 197.46875 16.324219 C 197.183594 16.785156 196.882812 17.203125 196.558594 17.578125 C 196.234375 17.957031 195.898438 18.285156 195.546875 18.5625 C 195.199219 18.839844 194.839844 19.066406 194.476562 19.234375 C 194.113281 19.402344 193.75 19.515625 193.386719 19.566406 C 193.023438 19.621094 192.664062 19.617188 192.316406 19.550781 C 191.964844 19.488281 191.628906 19.363281 191.308594 19.183594 C 190.988281 19.003906 190.683594 18.769531 190.402344 18.484375 C 190.121094 18.195312 189.863281 17.859375 189.632812 17.472656 C 189.402344 17.085938 189.199219 16.660156 189.027344 16.191406 C 188.855469 15.722656 188.71875 15.222656 188.613281 14.691406 C 188.507812 14.160156 188.4375 13.605469 188.402344 13.027344 C 188.367188 12.449219 188.371094 11.863281 188.40625 11.265625 C 188.441406 10.664062 188.515625 10.066406 188.621094 9.46875 C 188.730469 8.871094 188.871094 8.285156 189.042969 7.714844 C 189.214844 7.140625 189.417969 6.589844 189.652344 6.0625 C 189.882812 5.535156 190.140625 5.039062 190.425781 4.578125 C 190.707031 4.117188 191.011719 3.699219 191.335938 3.324219 C 191.65625 2.945312 191.992188 2.617188 192.34375 2.339844 C 192.695312 2.0625 193.050781 1.835938 193.414062 1.667969 C 193.78125 1.5 194.144531 1.386719 194.507812 1.335938 C 194.871094 1.28125 195.226562 1.285156 195.578125 1.351562 Z M 195.578125 1.351562 " fill-opacity="1" fill-rule="nonzero"/><g clip-path="url(#id1)"><path stroke-linecap="butt" transform="matrix(0.850979, 0, 0, 0.845553, 28.683186, 55.792083)" fill="none" stroke-linejoin="miter" d="M 0.000479285 0.00104761 L 374.541311 0.00104761 L 374.541311 88.469356 L 0.000479285 88.469356 L 0.000479285 0.00104761 " stroke="#f8813d" stroke-width="7.058345" stroke-opacity="1" stroke-miterlimit="4"/></g><g fill="#f8813d" fill-opacity="1"><g transform="translate(53.544625, 111.250543)"><g><path d="M 2.09375 -38.457031 L 7.742188 -38.457031 C 10.203125 -38.457031 12.660156 -37.828125 14.546875 -36.050781 C 16.429688 -34.269531 17.683594 -31.339844 17.683594 -26.945312 C 17.683594 -22.550781 16.429688 -19.671875 14.546875 -17.894531 C 12.660156 -16.113281 10.203125 -15.382812 7.742188 -15.382812 L 7.742188 0 L 2.09375 0 Z M 7.742188 -21.136719 C 9.46875 -21.136719 10.570312 -21.453125 11.195312 -22.339844 C 11.824219 -23.179688 11.980469 -24.589844 11.980469 -26.734375 C 11.980469 -28.882812 11.824219 -30.398438 11.195312 -31.339844 C 10.570312 -32.28125 9.46875 -32.699219 7.742188 -32.699219 Z M 7.742188 -21.136719 "/></g></g></g><g fill="#f8813d" fill-opacity="1"><g transform="translate(89.436498, 111.250543)"><g><path d="M 17.109375 -38.457031 L 17.109375 -7.902344 C 17.058594 -6.332031 16.742188 -4.917969 16.167969 -3.714844 C 15.695312 -2.667969 14.964844 -1.675781 13.917969 -0.890625 C 12.871094 -0.0507812 11.457031 0.417969 9.574219 0.417969 C 7.691406 0.417969 6.226562 -0.0507812 5.179688 -0.890625 C 4.132812 -1.675781 3.453125 -2.667969 2.980469 -3.714844 C 2.40625 -4.917969 2.09375 -6.332031 2.039062 -7.902344 L 2.039062 -38.457031 L 7.691406 -38.457031 L 7.691406 -7.902344 C 7.691406 -6.800781 7.953125 -6.070312 8.476562 -5.492188 C 8.738281 -5.230469 9.105469 -5.074219 9.574219 -5.074219 C 10.570312 -5.074219 11.039062 -5.703125 11.25 -6.488281 C 11.40625 -6.855469 11.457031 -7.324219 11.457031 -7.902344 L 11.457031 -38.457031 Z M 17.109375 -38.457031 "/></g></g></g><g fill="#f8813d" fill-opacity="1"><g transform="translate(126.060822, 111.250543)"><g><path d="M 2.09375 -38.457031 L 7.742188 -38.457031 C 10.203125 -38.457031 12.660156 -37.828125 14.546875 -36.050781 C 16.429688 -34.269531 17.683594 -31.339844 17.683594 -26.945312 C 17.683594 -22.550781 16.429688 -19.671875 14.546875 -17.894531 C 12.660156 -16.113281 10.203125 -15.382812 7.742188 -15.382812 L 7.742188 0 L 2.09375 0 Z M 7.742188 -21.136719 C 9.46875 -21.136719 10.570312 -21.453125 11.195312 -22.339844 C 11.824219 -23.179688 11.980469 -24.589844 11.980469 -26.734375 C 11.980469 -28.882812 11.824219 -30.398438 11.195312 -31.339844 C 10.570312 -32.28125 9.46875 -32.699219 7.742188 -32.699219 Z M 7.742188 -21.136719 "/></g></g></g><g fill="#f8813d" fill-opacity="1"><g transform="translate(161.952696, 111.250543)"><g><path d="M 2.09375 -38.457031 L 7.742188 -38.457031 C 10.203125 -38.457031 12.660156 -37.828125 14.546875 -36.050781 C 16.429688 -34.269531 17.683594 -31.339844 17.683594 -26.945312 C 17.683594 -22.550781 16.429688 -19.671875 14.546875 -17.894531 C 12.660156 -16.113281 10.203125 -15.382812 7.742188 -15.382812 L 7.742188 0 L 2.09375 0 Z M 7.742188 -21.136719 C 9.46875 -21.136719 10.570312 -21.453125 11.195312 -22.339844 C 11.824219 -23.179688 11.980469 -24.589844 11.980469 -26.734375 C 11.980469 -28.882812 11.824219 -30.398438 11.195312 -31.339844 C 10.570312 -32.28125 9.46875 -32.699219 7.742188 -32.699219 Z M 7.742188 -21.136719 "/></g></g></g><g fill="#f8813d" fill-opacity="1"><g transform="translate(197.844569, 111.250543)"><g><path d="M 2.09375 -38.457031 L 15.015625 -38.457031 L 15.015625 -32.648438 L 7.742188 -32.648438 L 7.742188 -22.550781 L 12.976562 -22.550781 L 12.976562 -16.375 L 7.742188 -16.375 L 7.742188 -5.808594 L 15.015625 -5.808594 L 15.015625 0 L 2.09375 0 Z M 2.09375 -38.457031 "/></g></g></g><g fill="#f8813d" fill-opacity="1"><g transform="translate(231.38211, 111.250543)"><g><path d="M 0.523438 0 L 6.332031 -38.457031 L 13.238281 -38.457031 L 19.042969 0 L 13.550781 0 L 12.503906 -7.847656 L 7.0625 -7.847656 L 6.015625 0 Z M 10.097656 -25.953125 L 9.941406 -26.945312 L 9.628906 -26.945312 L 9.46875 -25.953125 L 7.847656 -13.8125 L 11.71875 -13.8125 Z M 10.097656 -25.953125 "/></g></g></g><g fill="#f8813d" fill-opacity="1"><g transform="translate(268.424984, 111.250543)"><g><path d="M 11.457031 -28.148438 C 11.457031 -29.40625 11.40625 -30.816406 11.039062 -31.914062 C 10.671875 -32.960938 10.097656 -33.695312 9.207031 -33.695312 C 7.742188 -33.640625 7.273438 -32.125 7.273438 -29.875 C 7.273438 -28.566406 7.847656 -27.207031 8.683594 -25.742188 C 9.523438 -24.277344 10.621094 -22.757812 11.71875 -21.136719 C 13.027344 -19.203125 14.335938 -17.214844 15.328125 -15.277344 C 16.324219 -13.34375 17.003906 -11.355469 17.003906 -9.261719 C 17.003906 -6.695312 16.585938 -4.289062 15.382812 -2.511719 C 14.179688 -0.734375 12.242188 0.417969 9.15625 0.417969 C 5.546875 0.417969 3.503906 -0.941406 2.355469 -3.035156 C 1.203125 -5.128906 0.941406 -7.902344 0.941406 -10.777344 L 6.488281 -11.300781 C 6.488281 -9.679688 6.539062 -8.058594 6.957031 -6.855469 C 7.324219 -5.597656 7.953125 -4.761719 9.15625 -4.761719 C 10.832031 -4.761719 11.457031 -6.539062 11.457031 -9 C 11.457031 -10.253906 10.832031 -11.71875 9.992188 -13.238281 C 9.523438 -13.96875 9.050781 -14.753906 8.527344 -15.539062 C 7.429688 -17.109375 6.226562 -18.886719 4.96875 -20.824219 C 3.714844 -22.757812 2.773438 -24.746094 2.199219 -26.789062 C 1.882812 -27.78125 1.726562 -28.828125 1.726562 -29.875 C 1.726562 -31.96875 2.199219 -34.21875 3.402344 -35.945312 C 4.605469 -37.617188 6.433594 -38.820312 9.105469 -38.875 C 12.503906 -38.925781 14.492188 -37.515625 15.589844 -35.472656 C 16.691406 -33.378906 17.003906 -30.816406 17.003906 -28.671875 Z M 11.457031 -28.148438 "/></g></g></g><g fill="#f8813d" fill-opacity="1"><g transform="translate(303.845982, 111.250543)"><g><path d="M 2.09375 -38.457031 L 15.015625 -38.457031 L 15.015625 -32.648438 L 7.742188 -32.648438 L 7.742188 -22.550781 L 12.976562 -22.550781 L 12.976562 -16.375 L 7.742188 -16.375 L 7.742188 -5.808594 L 15.015625 -5.808594 L 15.015625 0 L 2.09375 0 Z M 2.09375 -38.457031 "/></g></g></g><path stroke-linecap="butt" transform="matrix(4.229383, 0.00000000000000122, -0.000000000000001227, 4.250287, 78.009141, 41.824182)" fill="none" stroke-linejoin="miter" d="M -0.000314078 0.0000085352 L 19.698185 0.0000085352 " stroke="#f8813d" stroke-width="1" stroke-opacity="1" stroke-miterlimit="4"/><path stroke-linecap="butt" transform="matrix(4.229383, 0.00000000000000122, -0.000000000000001227, 4.250287, 212.715086, 41.824182)" fill="none" stroke-linejoin="miter" d="M -0.0000572135 0.0000085352 L 19.698442 0.0000085352 " stroke="#f8813d" stroke-width="1" stroke-opacity="1" stroke-miterlimit="4"/><g clip-path="url(#id2)"><path stroke-linecap="butt" transform="matrix(4.243267, 0, 0, 4.250287, 79.312381, 147.924702)" fill="none" stroke-linejoin="miter" d="M 0.0000280653 0.000254029 L 51.084635 0.000254029 " stroke="#f8813d" stroke-width="1" stroke-opacity="1" stroke-miterlimit="4"/></g></svg>